<svg xmlns="http://www.w3.org/2000/svg" width="16.998" height="25.5" viewBox="0 0 16.998 25.5">
  <path id="map-marker-svgrepo-com_2_" data-name="map-marker-svgrepo-com (2)" d="M13.838.856a7.646,7.646,0,0,1,6.621,11.476L13.837,23.806,7.214,12.331A7.646,7.646,0,0,1,13.837.856Zm0,10.624a2.974,2.974,0,1,0-2.975-2.974A2.977,2.977,0,0,0,13.838,11.48Zm0-11.474A8.5,8.5,0,0,0,6.48,12.756l7.358,12.75,7.358-12.75A8.5,8.5,0,0,0,13.837.006h0Zm0,10.624a2.124,2.124,0,1,1,2.124-2.124,2.125,2.125,0,0,1-2.124,2.124Z" transform="translate(-5.338 -0.006)"/>
</svg>
