<svg xmlns="http://www.w3.org/2000/svg" width="13.951" height="20.929" viewBox="0 0 13.951 20.929">
  <path id="map-marker-svgrepo-com_2_" data-name="map-marker-svgrepo-com (2)" d="M12.314.7a6.275,6.275,0,0,1,5.434,9.418l-5.435,9.417L6.878,10.121A6.276,6.276,0,0,1,12.314.7Zm0,8.72A2.441,2.441,0,1,0,9.873,6.982,2.444,2.444,0,0,0,12.314,9.423Zm0-9.417A6.973,6.973,0,0,0,6.275,10.471l6.039,10.464,6.039-10.464A6.973,6.973,0,0,0,12.314.006h0Zm0,8.72a1.744,1.744,0,1,1,1.744-1.744,1.744,1.744,0,0,1-1.744,1.744Z" transform="translate(-5.338 -0.006)" fill="#fff"/>
</svg>
