<svg xmlns="http://www.w3.org/2000/svg" width="16.656" height="13" viewBox="0 0 16.656 13">
  <g id="email-9-svgrepo-com" transform="translate(0 -56.188)">
    <path id="Path_7" data-name="Path 7" d="M16.615,57.95a2.186,2.186,0,0,0-.453-.958,1.844,1.844,0,0,0-.148-.163,2.194,2.194,0,0,0-1.546-.641H2.187a2.173,2.173,0,0,0-1.546.641,1.919,1.919,0,0,0-.149.165,2.16,2.16,0,0,0-.45.957A2.113,2.113,0,0,0,0,58.376V67a2.2,2.2,0,0,0,.641,1.546c.049.049.1.094.151.139a2.193,2.193,0,0,0,1.4.5H14.468a2.176,2.176,0,0,0,1.4-.506,1.894,1.894,0,0,0,.149-.135,2.175,2.175,0,0,0,.448-.646l.014-.034A2.157,2.157,0,0,0,16.656,67V58.376A2.241,2.241,0,0,0,16.615,57.95ZM1.133,57.584a1.029,1.029,0,0,1,.121-.143,1.313,1.313,0,0,1,.934-.388H14.468a1.3,1.3,0,0,1,.934.388,1.318,1.318,0,0,1,.119.139l.094.126L9.06,63.42a1.114,1.114,0,0,1-1.465,0L1.047,57.709ZM.87,67.077a.522.522,0,0,1,0-.076V58.554l5.087,4.438L.917,67.382Zm14.253,1.071a1.313,1.313,0,0,1-.655.174H2.187a1.312,1.312,0,0,1-.655-.174l-.206-.119,5.2-4.534.57.5a1.871,1.871,0,0,0,2.459,0l.57-.5,5.2,4.535ZM15.789,67a.546.546,0,0,1,0,.075l-.045.308L10.7,62.994l5.086-4.438Z" transform="translate(0)" fill="#fff"/>
  </g>
</svg>
