<svg width="21" height="22" viewBox="0 0 21 22" fill="none" xmlns="http://www.w3.org/2000/svg">
<path d="M20.0829 15.92V18.92C20.084 19.1985 20.0293 19.4742 19.9224 19.7294C19.8154 19.9845 19.6586 20.2136 19.462 20.4019C19.2653 20.5902 19.0331 20.7335 18.7803 20.8227C18.5274 20.9119 18.2595 20.9451 17.9937 20.92C15.0448 20.5856 12.2121 19.5342 9.7233 17.85C7.4078 16.3147 5.44466 14.2662 3.9733 11.85C2.3537 9.24121 1.34578 6.271 1.03122 3.18001C1.00727 2.90347 1.03876 2.62477 1.1237 2.36163C1.20863 2.09849 1.34514 1.85669 1.52453 1.65163C1.70393 1.44656 1.92228 1.28271 2.16568 1.17053C2.40909 1.05834 2.67221 1.00027 2.9383 1.00001H5.8133C6.27838 0.995229 6.72927 1.16708 7.0819 1.48354C7.43454 1.79999 7.66487 2.23945 7.72997 2.72001C7.85131 3.68007 8.07636 4.62273 8.4008 5.53001C8.52974 5.88793 8.55764 6.27692 8.48121 6.65089C8.40478 7.02485 8.22721 7.36812 7.96955 7.64001L6.75247 8.91001C8.11671 11.4136 10.1032 13.4865 12.5025 14.91L13.7195 13.64C13.9801 13.3711 14.3091 13.1859 14.6675 13.1061C15.0258 13.0263 15.3986 13.0555 15.7416 13.19C16.6111 13.5286 17.5145 13.7634 18.4345 13.89C18.9001 13.9585 19.3252 14.2032 19.6291 14.5775C19.9331 14.9518 20.0945 15.4296 20.0829 15.92Z" stroke="white" stroke-width="1.2" stroke-linecap="round" stroke-linejoin="round"/>
</svg>
